<?xml version="1.0" encoding="UTF-8"?>
<svg width="57px" height="60px" viewBox="0 0 57 60" version="1.1" xmlns="http://www.w3.org/2000/svg" xmlns:xlink="http://www.w3.org/1999/xlink">
    <!-- Generator: sketchtool 48.2 (47327) - http://www.bohemiancoding.com/sketch -->
    <title>E413ADD5-EF5C-4E2D-AB64-6A7C5794B2FE</title>
    <desc>Created with sketchtool.</desc>
    <defs>
        <polygon id="path-1" points="0.160067742 0.0499272727 10.8002258 0.0499272727 10.8002258 11.9873818 0.160067742 11.9873818"></polygon>
        <polygon id="path-3" points="0.101505882 0.0647647059 5.9568 0.0647647059 5.9568 6 0.101505882 6"></polygon>
        <polygon id="path-5" points="0.125435294 0.0647647059 5.98037647 0.0647647059 5.98037647 6 0.125435294 6"></polygon>
        <polygon id="path-7" points="0.294542553 0.210782609 32.9789362 0.210782609 32.9789362 23.7481043 0.294542553 23.7481043"></polygon>
    </defs>
    <g id="Login-2" stroke="none" stroke-width="1" fill="none" fill-rule="evenodd" transform="translate(-40.000000, -59.000000)">
        <g id="Page-1" transform="translate(40.000000, 59.000000)">
            <path d="M5.1433347,36 C7.7136649,36 9,37.1430486 9,39.4291459 L7.07116592,39.4291459 C7.07116592,38.2860972 6.42833265,37.7143902 5.1433347,37.7143902 L3.85800245,37.7143902 C2.57166735,37.7143902 1.92916837,38.0006092 1.92916837,38.5712197 C1.92916837,39.1432923 3.10819745,40.1426831 5.46391561,41.5719508 C7.82097092,43.0004874 9,44.2857317 9,45.4287803 C9,47.143536 7.7136649,48 5.1433347,48 L3.85800245,48 C1.2863351,48 0,46.8576825 0,44.5715852 L1.92916837,44.5715852 C1.92916837,45.7146338 2.57166735,46.2859754 3.85800245,46.2859754 L5.1433347,46.2859754 C6.42833265,46.2859754 7.07116592,46.0004874 7.07116592,45.4287803 C7.07116592,44.8570732 5.89313969,43.858048 3.53608439,42.4287803 C1.17902908,41.0009748 0,39.7149994 0,38.5712197 C0,36.8571951 1.2863351,36 3.85800245,36 L5.1433347,36 Z" id="Fill-1" fill="#231F20"></path>
            <path d="M12.8446765,41.1431705 L18.3847877,41.1431705 L18.3847877,42.8568295 L12.8446765,42.8568295 L12.8446765,44.5715852 C12.8446765,45.7146338 13.4598888,46.2859754 14.6919137,46.2859754 L19,46.2859754 L19,48 L14.6919137,48 C12.2304245,48 11,46.8576825 11,44.5715852 L11,39.4295114 C11,37.1434142 12.2304245,36 14.6919137,36 L19,36 L19,37.7147557 L14.6919137,37.7147557 C13.4598888,37.7147557 12.8446765,38.2860972 12.8446765,39.4295114 L12.8446765,41.1431705 Z" id="Fill-3" fill="#231F20"></path>
            <path d="M23.0010402,39.4291459 L23.0010402,48 L21,48 L21,39.4291459 C21,37.1430486 22.3346047,36 25.0006935,36 C26.3335645,36 27.332871,36.285488 27.9993065,36.8571951 C28.667129,36.285488 29.6678225,36 31.0006935,36 C33.6667822,36 35,37.1430486 35,39.4291459 L35,48 L33.0003467,48 L33.0003467,39.4291459 C33.0003467,38.2860972 32.3339112,37.7143902 31.0006935,37.7143902 C29.6678225,37.7143902 29.0010402,38.2860972 29.0010402,39.4291459 L29.0010402,48 L27.0017337,48 L27.0017337,39.4291459 C27.0017337,38.2860972 26.3335645,37.7143902 25.0006935,37.7143902 C23.6660888,37.7143902 23.0010402,38.2860972 23.0010402,39.4291459" id="Fill-5" fill="#231F20"></path>
            <path d="M36,44.5715852 L36,36 L37.9293834,36 L37.9293834,44.5715852 C37.9293834,45.7146338 38.5719539,46.2859754 39.8574294,46.2859754 L41.1425706,46.2859754 C42.4280461,46.2859754 43.0732912,45.7146338 43.0732912,44.5715852 L43.0732912,36 L45,36 L45,44.5715852 C45,46.8576825 43.7158618,48 41.1425706,48 L39.8574294,48 C37.2864785,48 36,46.8576825 36,44.5715852" id="Fill-7" fill="#231F20"></path>
            <g id="Group-11" transform="translate(46.000000, 36.000000)">
                <mask id="mask-2" fill="white">
                    <use xlink:href="#path-1"></use>
                </mask>
                <g id="Clip-10"></g>
                <path d="M5.48406774,2.88992727 L3.43629355,8.57683636 L7.53184194,8.57683636 L5.48406774,2.88992727 Z M2.81993871,10.2822909 L2.20642258,11.9873818 L0.160067742,11.9873818 L4.46177742,0.0499272727 L6.50777742,0.0499272727 L10.8002613,11.9873818 L8.75390645,11.9873818 L8.13755161,10.2822909 L2.81993871,10.2822909 Z" id="Fill-9" fill="#231F20" mask="url(#mask-2)"></path>
            </g>
            <path d="M11.264021,56.6842011 C12.4519515,56.9664654 13,57.4420467 13,58.3412039 C13,59.3490346 12.2394228,60 11.1797311,60 C10.33388,60 9.6402099,59.6915536 9,59.0667703 L9.37389308,58.5822225 C9.93014103,59.1324048 10.4634306,59.4078546 11.2026894,59.4078546 C11.9186619,59.4078546 12.3916038,58.9997011 12.3916038,58.4075557 C12.3916038,57.8577321 12.1236471,57.5496443 11.0039357,57.2899755 C9.77828796,56.999462 9.21351263,56.5662024 9.21351263,55.5999761 C9.21351263,54.6663877 9.9527714,54 10.9662184,54 C11.7431945,54 12.2994424,54.2410186 12.8409315,54.7158826 L12.4896687,55.2241019 C11.9954083,54.7836691 11.500164,54.5914281 10.9511315,54.5914281 C10.2577894,54.5914281 9.81600525,55.0078307 9.81600525,55.5411561 C9.81600525,56.0995875 10.0905215,56.408034 11.264021,56.6842011" id="Fill-12" fill="#231F20"></path>
            <path d="M17.7806958,60 C16.1804229,60 15,58.6824047 15,57.0087412 C15,55.350776 16.1718963,54 17.8045703,54 C18.8110505,54 19.4133697,54.3724802 19.96794,54.9194268 L19.5402456,55.4000119 C19.0719645,54.9358387 18.5497954,54.6040316 17.7974079,54.6040316 C16.569236,54.6040316 15.6493861,55.6404828 15.6493861,56.9912588 C15.6493861,58.3420348 16.5757162,59.3956116 17.7974079,59.3956116 C18.5579809,59.3956116 19.0572988,59.089136 19.5879945,58.5582446 L20,58.9813879 C19.4212142,59.5943391 18.7868349,60 17.7806958,60" id="Fill-14" fill="#231F20"></path>
            <polygon id="Fill-16" fill="#231F20" points="22.5621506 57.2991884 22.5621506 60 22 60 22 54 22.5621506 54 22.5621506 56.6668716 25.4372367 56.6668716 25.4372367 54 26 54 26 60 25.4372367 60 25.4372367 57.2991884"></polygon>
            <g id="Group-20" transform="translate(29.000000, 54.000000)">
                <mask id="mask-4" fill="white">
                    <use xlink:href="#path-3"></use>
                </mask>
                <g id="Clip-19"></g>
                <path d="M3.02103529,0.662294118 C1.7088,0.662294118 0.774917647,1.71158824 0.774917647,3.02347059 C0.774917647,4.33570588 1.72538824,5.40229412 3.03691765,5.40229412 C4.34950588,5.40229412 5.28515294,4.35264706 5.28515294,3.04076471 C5.28515294,1.72852941 4.33327059,0.662294118 3.02103529,0.662294118 M3.02103529,6.00017647 C1.27503529,6.00017647 0.101505882,4.63111765 0.101505882,3.04076471 C0.101505882,1.44935294 1.29091765,0.0647647059 3.03691765,0.0647647059 C4.78397647,0.0647647059 5.9568,1.43347059 5.9568,3.02347059 C5.9568,4.61452941 4.76774118,6.00017647 3.02103529,6.00017647" id="Fill-18" fill="#231F20" mask="url(#mask-4)"></path>
            </g>
            <g id="Group-23" transform="translate(36.000000, 54.000000)">
                <mask id="mask-6" fill="white">
                    <use xlink:href="#path-5"></use>
                </mask>
                <g id="Clip-22"></g>
                <path d="M3.04531765,0.662294118 C1.73308235,0.662294118 0.7992,1.71158824 0.7992,3.02347059 C0.7992,4.33570588 1.74967059,5.40229412 3.06049412,5.40229412 C4.37272941,5.40229412 5.30731765,4.35264706 5.30731765,3.04076471 C5.30731765,1.72852941 4.35755294,0.662294118 3.04531765,0.662294118 M3.04531765,6.00017647 C1.29931765,6.00017647 0.125435294,4.63111765 0.125435294,3.04076471 C0.125435294,1.44935294 1.3152,0.0647647059 3.06049412,0.0647647059 C4.80825882,0.0647647059 5.98037647,1.43347059 5.98037647,3.02347059 C5.98037647,4.61452941 4.79202353,6.00017647 3.04531765,6.00017647" id="Fill-21" fill="#231F20" mask="url(#mask-6)"></path>
            </g>
            <polygon id="Fill-24" fill="#231F20" points="44 54 44.669214 54 44.669214 59.3735858 48 59.3735858 48 60 44 60"></polygon>
            <polygon id="Fill-26" fill="#FFDD00" points="43.171581 10 34 20 48.4456199 13.7794957 49 11.7507823"></polygon>
            <path d="M29.0473374,23 L42.799026,8.79176383 C44.4003247,7.13761395 44.4003247,4.45459058 42.799026,2.80044069 L42.2575405,2.24061247 C40.6548796,0.587166329 38.0581331,0.585758841 36.4581966,2.24061247 L29,9.9462556" id="Fill-28" fill="#FFDD00"></path>
            <g id="Group-32" transform="translate(12.000000, 0.000000)">
                <mask id="mask-8" fill="white">
                    <use xlink:href="#path-7"></use>
                </mask>
                <g id="Clip-31"></g>
                <path d="M5.96106383,1.95332174 C5.06655319,1.95332174 4.22505319,2.29836522 3.59138298,2.9248 L3.03389362,3.47749565 C2.40162766,4.10427826 2.05337234,4.93697391 2.05337234,5.82288696 C2.05337234,6.70914783 2.4012766,7.54184348 3.03389362,8.16793043 L16.637266,21.6451478 L30.2399362,8.16793043 C30.8722021,7.54184348 31.2204574,6.70914783 31.2204574,5.82288696 C31.2204574,4.93697391 30.8722021,4.10427826 30.2399362,3.47749565 L29.6817447,2.9248 C29.0487766,2.29836522 28.2076277,1.95332174 27.312766,1.95332174 C26.4186064,1.95332174 25.5788617,2.29801739 24.9476489,2.92410435 L17.2586489,10.5414957 C17.0936489,10.7049739 16.8700213,10.7968 16.6369149,10.7968 C16.4038085,10.7968 16.1798298,10.7049739 16.0151809,10.5414957 L8.32793617,2.92445217 C7.69567021,2.29801739 6.85557447,1.95332174 5.96106383,1.95332174 M16.6369149,23.7481043 C16.411883,23.7481043 16.1868511,23.6632348 16.0151809,23.4931478 L1.79042553,9.40027826 C0.826053191,8.4448 0.294542553,7.17453913 0.294542553,5.82288696 C0.294542553,4.47158261 0.826053191,3.20097391 1.79042553,2.24549565 L2.34826596,1.69245217 C3.31404255,0.736626087 4.59718085,0.210713043 5.96106383,0.210713043 C7.32529787,0.210713043 8.60773404,0.736973913 9.57175532,1.69245217 L16.6369149,8.69314783 L23.7038298,1.69245217 C24.6667979,0.736973913 25.948883,0.210713043 27.312766,0.210713043 C28.677,0.210713043 29.9597872,0.736626087 30.9248617,1.69210435 L31.4834043,2.24549565 C32.4481277,3.20097391 32.9789362,4.47158261 32.9789362,5.82288696 C32.9789362,7.17453913 32.4481277,8.4448 31.4834043,9.40027826 L17.2544362,23.4973217 C17.083117,23.6646261 16.8598404,23.7481043 16.6369149,23.7481043" id="Fill-30" fill="#000000" mask="url(#mask-8)"></path>
            </g>
            <path d="M29.0001483,25 C28.88625,25 28.7723517,24.9781957 28.6650916,24.934241 L8.54002929,16.6679863 C8.09386935,16.4845532 7.8817949,15.9771705 8.06696699,15.5352007 C8.25213909,15.0925387 8.76398271,14.8831481 9.21049203,15.0662351 L29.000847,23.195088 L48.7898045,15.0662351 C49.2356151,14.8831481 49.7481574,15.0928848 49.9329802,15.5352007 C50.1181523,15.9771705 49.9064272,16.4845532 49.4602672,16.6679863 L29.3289161,24.9363176 C29.2234029,24.9788879 29.1119503,25 29.0001483,25" id="Fill-33" fill="#000000"></path>
            <path d="M53.1408274,23.999705 C53.1380868,23.999705 53.1329482,24.0003688 53.1278097,23.999705 L1.85836481,23.999705 C1.54662357,23.999705 1.25954756,23.8360787 1.10813038,23.5722188 C0.956713208,23.3083589 0.964592383,22.9864167 1.13005504,22.7298586 L1.98785733,21.3926368 C2.14955169,21.1390658 2.43834056,21.0046466 2.74494321,21 L27.4632834,21.7998771 L52.2415738,21 C52.5406399,21.0026552 52.8366228,21.1390658 52.9983171,21.3926368 L53.7876049,22.6216595 C53.9194954,22.7676951 54,22.959201 54,23.1686294 C54,23.6279779 53.6156333,23.999705 53.1408274,23.999705" id="Fill-35" fill="#000000"></path>
            <path d="M48.6947534,11.0029819 L47.9007865,10.6757555 C47.1011937,10.3471323 46.1307116,10.1246743 45.0895531,10 L43.4400851,11.6375285 C44.8648654,11.6521961 46.2393634,11.8861786 47.2260202,12.291632 L48.019987,12.6188583 C48.9141667,12.986595 49.2376608,13.3857623 49.2376608,13.5638684 C49.2376608,13.7419745 48.9141667,14.140094 48.019987,14.5088784 L35.2570926,19.7644056 L32,23 L48.6947534,16.1244056 C50.7014713,15.298133 51,14.1652384 51,13.5631699 C51,12.9617999 50.7000648,11.8285561 48.6947534,11.0029819" id="Fill-37" fill="#000000"></path>
            <path d="M21.743038,19.7644056 L8.98062654,14.5088784 C8.08587606,14.140094 7.76172677,13.7419745 7.76172677,13.5638684 C7.76172677,13.3857623 8.08587606,12.9872935 8.98062654,12.6188583 L9.77482745,12.291632 C10.7613382,11.8861786 12.1352812,11.6521961 13.5602021,11.6378778 L11.9109783,10 C10.8699739,10.1246743 9.8992839,10.3471323 9.10016098,10.6761048 L8.30596007,11.0029819 C6.29989083,11.8285561 6,12.9617999 6,13.5631699 C6,14.1652384 6.29989083,15.298133 8.30596007,16.1244056 L25,23 L21.743038,19.7644056 Z" id="Fill-39" fill="#000000"></path>
        </g>
    </g>
</svg>